<?xml version="1.0" standalone="yes"?>

<svg version="1.1" width="400" height="400" viewBox="0.0 0.0 421.0 373.0" fill="none" stroke="none" stroke-linecap="square" stroke-miterlimit="10" xmlns="http://www.w3.org/2000/svg" xmlns:xlink="http://www.w3.org/1999/xlink"><clipPath id="p.0"><path d="m0 0l421.0 0l0 373.0l-421.0 0l0 -373.0z" clip-rule="nonzero"></path></clipPath><g clip-path="url(#p.0)"><path stroke="#999999" stroke-width="3.0" stroke-linejoin="round" stroke-linecap="butt" d="m21.524319 176.95538l365.16534 0" fill-rule="nonzero"></path><path stroke="#999999" stroke-width="3.0" stroke-linejoin="round" stroke-linecap="butt" d="m7.3948493 101.11811l395.11813 0" fill-rule="nonzero"></path><path stroke="#b7b7b7" stroke-width="2.0" stroke-linejoin="round" stroke-linecap="butt" d="m204.9539 346.42783l-90.92914 -339.40158" fill-rule="nonzero"></path><path stroke="#85200c" stroke-width="3.0" stroke-linejoin="round" stroke-linecap="butt" d="m146.08755 244.81337l0 0c9.720718 -13.949173 32.83716 -23.020737 58.418 -22.924911c25.580841 0.095825195 48.499863 9.3398285 57.919098 23.360687" fill-rule="nonzero"></path><path stroke="#1155cc" stroke-width="3.0" stroke-linejoin="round" stroke-linecap="butt" d="m62.787403 101.11811l78.61418 0" fill-rule="nonzero"></path><path fill="#980000" d="m123.79123 98.99654l0 0c0 -8.428764 6.8366394 -15.261627 15.27005 -15.261627l0 0c4.049881 0 7.9338684 1.6079178 10.797562 4.4700317c2.8636932 2.8621063 4.4725037 6.743965 4.4725037 10.791595l0 0c0 8.428764 -6.8366394 15.261627 -15.270065 15.261627l0 0c-8.433411 0 -15.27005 -6.832863 -15.27005 -15.261627z" fill-rule="nonzero"></path><path stroke="#000000" stroke-width="1.0" stroke-linejoin="round" stroke-linecap="butt" d="m123.79123 98.99654l0 0c0 -8.428764 6.8366394 -15.261627 15.27005 -15.261627l0 0c4.049881 0 7.9338684 1.6079178 10.797562 4.4700317c2.8636932 2.8621063 4.4725037 6.743965 4.4725037 10.791595l0 0c0 8.428764 -6.8366394 15.261627 -15.270065 15.261627l0 0c-8.433411 0 -15.27005 -6.832863 -15.27005 -15.261627z" fill-rule="nonzero"></path><path fill="#ffffff" d="m138.82779 99.14936q0 1.109375 -0.234375 2.0q-0.234375 0.875 -0.6875 1.5q-0.453125 0.625 -1.140625 0.96875q-0.671875 0.328125 -1.546875 0.328125q-0.359375 0 -0.671875 -0.078125q-0.296875 -0.0625 -0.578125 -0.203125q-0.28125 -0.15625 -0.5625 -0.359375q-0.28125 -0.21875 -0.578125 -0.5l0 3.890625q0 0.09375 -0.0625 0.15625q-0.046875 0.078125 -0.1875 0.125q-0.125 0.0625 -0.34375 0.09375q-0.21875 0.03125 -0.5625 0.03125q-0.34375 0 -0.578125 -0.03125q-0.21875 -0.03125 -0.359375 -0.09375q-0.125 -0.046875 -0.1875 -0.125q-0.046875 -0.0625 -0.046875 -0.15625l0 -11.5625q0 -0.09375 0.046875 -0.15625q0.046875 -0.078125 0.15625 -0.125q0.125 -0.046875 0.3125 -0.0625q0.1875 -0.03125 0.46875 -0.03125q0.28125 0 0.46875 0.03125q0.203125 0.015625 0.3125 0.0625q0.109375 0.046875 0.15625 0.125q0.046875 0.0625 0.046875 0.15625l0 0.984375q0.359375 -0.375 0.703125 -0.65625q0.359375 -0.28125 0.71875 -0.46875q0.359375 -0.203125 0.75 -0.296875q0.390625 -0.09375 0.8125 -0.09375q0.921875 0 1.5625 0.359375q0.640625 0.359375 1.03125 0.984375q0.40625 0.625 0.59375 1.453125q0.1875 0.8125 0.1875 1.75zm-2.4375 0.171875q0 -0.53125 -0.078125 -1.015625q-0.078125 -0.484375 -0.265625 -0.859375q-0.1875 -0.390625 -0.5 -0.609375q-0.3125 -0.234375 -0.765625 -0.234375q-0.234375 0 -0.46875 0.078125q-0.21875 0.0625 -0.46875 0.21875q-0.234375 0.15625 -0.484375 0.40625q-0.25 0.25 -0.53125 0.625l0 2.71875q0.5 0.625 0.9375 0.96875q0.453125 0.34375 0.9375 0.34375q0.453125 0 0.765625 -0.234375q0.328125 -0.234375 0.53125 -0.609375q0.203125 -0.375 0.296875 -0.84375q0.09375 -0.484375 0.09375 -0.953125zm11.823837 3.40625q0 0.28125 -0.03125 0.46875q-0.015625 0.1875 -0.0625 0.3125q-0.046875 0.109375 -0.125 0.171875q-0.078125 0.046875 -0.171875 0.046875l-6.890625 0q-0.21875 0 -0.375 -0.03125q-0.140625 -0.046875 -0.234375 -0.140625q-0.078125 -0.109375 -0.125 -0.3125q-0.046875 -0.21875 -0.046875 -0.53125q0 -0.3125 0.03125 -0.53125q0.03125 -0.21875 0.09375 -0.390625q0.078125 -0.171875 0.1875 -0.328125q0.125 -0.171875 0.3125 -0.359375l2.078125 -2.234375q0.625 -0.640625 1.0 -1.171875q0.390625 -0.53125 0.59375 -0.96875q0.21875 -0.453125 0.296875 -0.8125q0.078125 -0.375 0.078125 -0.71875q0 -0.296875 -0.109375 -0.5625q-0.09375 -0.28125 -0.28125 -0.484375q-0.1875 -0.203125 -0.484375 -0.3125q-0.28125 -0.125 -0.671875 -0.125q-0.546875 0 -0.96875 0.140625q-0.421875 0.140625 -0.75 0.3125q-0.3125 0.171875 -0.53125 0.3125q-0.203125 0.140625 -0.328125 0.140625q-0.078125 0 -0.140625 -0.046875q-0.0625 -0.0625 -0.109375 -0.1875q-0.03125 -0.140625 -0.046875 -0.359375q-0.015625 -0.21875 -0.015625 -0.53125q0 -0.21875 0 -0.359375q0.015625 -0.140625 0.046875 -0.25q0.03125 -0.109375 0.078125 -0.1875q0.046875 -0.078125 0.15625 -0.1875q0.125 -0.109375 0.421875 -0.28125q0.3125 -0.171875 0.765625 -0.328125q0.46875 -0.171875 1.015625 -0.28125q0.546875 -0.109375 1.140625 -0.109375q0.9375 0 1.625 0.234375q0.703125 0.234375 1.171875 0.65625q0.46875 0.421875 0.6875 1.015625q0.234375 0.578125 0.234375 1.234375q0 0.59375 -0.109375 1.15625q-0.109375 0.5625 -0.46875 1.21875q-0.359375 0.65625 -1.0 1.453125q-0.640625 0.78125 -1.6875 1.828125l-1.40625 1.453125l4.734375 0q0.09375 0 0.171875 0.0625q0.078125 0.046875 0.125 0.15625q0.0625 0.109375 0.09375 0.3125q0.03125 0.1875 0.03125 0.4375z" fill-rule="nonzero"></path><path stroke="#1155cc" stroke-width="3.0" stroke-linejoin="round" stroke-linecap="butt" d="m106.024765 176.72704l54.897644 0" fill-rule="nonzero"></path><path stroke="#e69138" stroke-width="4.0" stroke-linejoin="round" stroke-linecap="butt" d="m385.7413 33.703407l-180.7874 312.72443l-180.7874 -312.72443z" fill-rule="nonzero"></path><path fill="#980000" d="m144.21928 174.60547l0 0c0 -8.428772 6.836624 -15.261642 15.27005 -15.261642l0 0c4.0498657 0 7.9338684 1.6079254 10.797562 4.4700317c2.8636932 2.8621063 4.4724884 6.743973 4.4724884 10.791611l0 0c0 8.428757 -6.836624 15.261627 -15.27005 15.261627l0 0c-8.433426 0 -15.27005 -6.8328705 -15.27005 -15.261627z" fill-rule="nonzero"></path><path stroke="#000000" stroke-width="1.0" stroke-linejoin="round" stroke-linecap="butt" d="m144.21928 174.60547l0 0c0 -8.428772 6.836624 -15.261642 15.27005 -15.261642l0 0c4.0498657 0 7.9338684 1.6079254 10.797562 4.4700317c2.8636932 2.8621063 4.4724884 6.743973 4.4724884 10.791611l0 0c0 8.428757 -6.836624 15.261627 -15.27005 15.261627l0 0c-8.433426 0 -15.27005 -6.8328705 -15.27005 -15.261627z" fill-rule="nonzero"></path><path fill="#ffffff" d="m159.25583 174.75829q0 1.109375 -0.234375 2.0q-0.234375 0.875 -0.6875 1.5q-0.453125 0.625 -1.140625 0.96875q-0.671875 0.328125 -1.546875 0.328125q-0.359375 0 -0.671875 -0.078125q-0.296875 -0.0625 -0.578125 -0.203125q-0.28125 -0.15625 -0.5625 -0.359375q-0.28125 -0.21875 -0.57810974 -0.5l0 3.890625q0 0.09375 -0.0625 0.15625q-0.046875 0.078125 -0.1875 0.125q-0.125 0.0625 -0.34375 0.09375q-0.21875 0.03125 -0.5625 0.03125q-0.34375 0 -0.578125 -0.03125q-0.21875 -0.03125 -0.359375 -0.09375q-0.125 -0.046875 -0.1875 -0.125q-0.046875 -0.0625 -0.046875 -0.15625l0 -11.5625q0 -0.09375 0.046875 -0.15625q0.046875 -0.078125 0.15625 -0.125q0.125 -0.046875 0.3125 -0.0625q0.1875 -0.03125 0.46875 -0.03125q0.28125 0 0.46875 0.03125q0.203125 0.015625 0.3125 0.0625q0.109375 0.046875 0.15625 0.125q0.046875 0.0625 0.046875 0.15625l0 0.984375q0.359375 -0.375 0.70310974 -0.65625q0.359375 -0.28125 0.71875 -0.46875q0.359375 -0.203125 0.75 -0.296875q0.390625 -0.09375 0.8125 -0.09375q0.921875 0 1.5625 0.359375q0.640625 0.359375 1.03125 0.984375q0.40625 0.625 0.59375 1.453125q0.1875 0.8125 0.1875 1.75zm-2.4375 0.171875q0 -0.53125 -0.078125 -1.015625q-0.078125 -0.484375 -0.265625 -0.859375q-0.1875 -0.390625 -0.5 -0.609375q-0.3125 -0.234375 -0.765625 -0.234375q-0.234375 0 -0.46875 0.078125q-0.21875 0.0625 -0.46875 0.21875q-0.234375 0.15625 -0.484375 0.40625q-0.25 0.25 -0.53123474 0.625l0 2.71875q0.49998474 0.625 0.93748474 0.96875q0.453125 0.34375 0.9375 0.34375q0.453125 0 0.765625 -0.234375q0.328125 -0.234375 0.53125 -0.609375q0.203125 -0.375 0.296875 -0.84375q0.09375 -0.484375 0.09375 -0.953125zm11.714462 3.484375q0 0.25 -0.03125 0.4375q-0.03125 0.171875 -0.09375 0.28125q-0.046875 0.109375 -0.109375 0.15625q-0.0625 0.046875 -0.140625 0.046875l-6.625 0q-0.078125 0 -0.140625 -0.046875q-0.0625 -0.046875 -0.125 -0.15625q-0.046875 -0.109375 -0.078125 -0.28125q-0.015625 -0.1875 -0.015625 -0.4375q0 -0.28125 0.015625 -0.453125q0.03125 -0.1875 0.078125 -0.296875q0.046875 -0.109375 0.109375 -0.15625q0.0625 -0.0625 0.15625 -0.0625l2.234375 0l0 -7.796875l-1.9375 1.0625q-0.203125 0.09375 -0.34375 0.125q-0.125 0.015625 -0.21875 -0.0625q-0.078125 -0.078125 -0.109375 -0.265625q-0.015625 -0.203125 -0.015625 -0.546875q0 -0.234375 0 -0.375q0.015625 -0.140625 0.046875 -0.234375q0.046875 -0.109375 0.109375 -0.171875q0.0625 -0.0625 0.171875 -0.140625l2.578125 -1.671875q0.046875 -0.03125 0.109375 -0.046875q0.078125 -0.03125 0.1875 -0.046875q0.109375 -0.015625 0.296875 -0.015625q0.1875 -0.015625 0.46875 -0.015625q0.359375 0 0.5625 0.015625q0.21875 0.015625 0.328125 0.046875q0.125 0.03125 0.15625 0.09375q0.03125 0.046875 0.03125 0.140625l0 9.90625l1.96875 0q0.078125 0 0.140625 0.0625q0.078125 0.046875 0.125 0.15625q0.0625 0.109375 0.078125 0.296875q0.03125 0.171875 0.03125 0.453125z" fill-rule="nonzero"></path><path fill="#0b5394" d="m123.34113 168.61446q0 0.09375 -0.046875 0.171875q-0.046875 0.0625 -0.15625 0.109375q-0.109375 0.046875 -0.296875 0.0625q-0.1875 0.03125 -0.46875 0.03125q-0.296875 0 -0.484375 -0.03125q-0.1875 -0.015625 -0.3125 -0.0625q-0.109375 -0.046875 -0.15625 -0.109375q-0.046875 -0.078125 -0.046875 -0.171875l0 -0.921875q-0.640625 0.6875 -1.34375 1.078125q-0.703125 0.375 -1.5625 0.375q-0.9375 0 -1.59375 -0.359375q-0.65625 -0.375 -1.078125 -1.0q-0.40625 -0.625 -0.59375 -1.453125q-0.171875 -0.828125 -0.171875 -1.75q0 -1.109375 0.234375 -1.984375q0.234375 -0.875 0.6875 -1.5q0.453125 -0.625 1.125 -0.953125q0.6875 -0.34375 1.5625 -0.34375q0.703125 0 1.265625 0.296875q0.5625 0.28125 1.125 0.828125l0 -4.484375q0 -0.09375 0.046875 -0.171875q0.046875 -0.078125 0.171875 -0.125q0.140625 -0.046875 0.359375 -0.078125q0.234375 -0.03125 0.578125 -0.03125q0.34375 0 0.5625 0.03125q0.21875 0.03125 0.34375 0.078125q0.140625 0.046875 0.1875 0.125q0.0625 0.078125 0.0625 0.171875l0 12.171875zm-2.3125 -5.53125q-0.5 -0.625 -0.96875 -0.953125q-0.453125 -0.34375 -0.953125 -0.34375q-0.453125 0 -0.78125 0.234375q-0.328125 0.21875 -0.53125 0.609375q-0.203125 0.375 -0.296875 0.84375q-0.09375 0.46875 -0.09375 0.953125q0 0.515625 0.078125 1.015625q0.078125 0.484375 0.265625 0.875q0.203125 0.375 0.515625 0.609375q0.3125 0.234375 0.796875 0.234375q0.234375 0 0.453125 -0.0625q0.234375 -0.078125 0.46875 -0.234375q0.25 -0.15625 0.5 -0.40625q0.25 -0.265625 0.546875 -0.625l0 -2.75zm12.07383 4.921875q0 0.25 -0.03125 0.4375q-0.03125 0.171875 -0.09375 0.28125q-0.046875 0.109375 -0.109375 0.15625q-0.0625 0.046875 -0.140625 0.046875l-6.6249924 0q-0.078125 0 -0.140625 -0.046875q-0.0625 -0.046875 -0.125 -0.15625q-0.046875 -0.109375 -0.078125 -0.28125q-0.015625 -0.1875 -0.015625 -0.4375q0 -0.28125 0.015625 -0.453125q0.03125 -0.1875 0.078125 -0.296875q0.046875 -0.109375 0.109375 -0.15625q0.0625 -0.0625 0.15625 -0.0625l2.2343674 0l0 -7.796875l-1.9374924 1.0625q-0.203125 0.09375 -0.34375 0.125q-0.125 0.015625 -0.21875 -0.0625q-0.078125 -0.078125 -0.109375 -0.265625q-0.015625 -0.203125 -0.015625 -0.546875q0 -0.234375 0 -0.375q0.015625 -0.140625 0.046875 -0.234375q0.046875 -0.109375 0.109375 -0.171875q0.0625 -0.0625 0.171875 -0.140625l2.5781174 -1.671875q0.046875 -0.03125 0.109375 -0.046875q0.078125 -0.03125 0.1875 -0.046875q0.109375 -0.015625 0.296875 -0.015625q0.1875 -0.015625 0.46875 -0.015625q0.359375 0 0.5625 0.015625q0.21875 0.015625 0.328125 0.046875q0.125 0.03125 0.15625 0.09375q0.03125 0.046875 0.03125 0.140625l0 9.90625l1.96875 0q0.078125 0 0.140625 0.0625q0.078125 0.046875 0.125 0.15625q0.0625 0.109375 0.078125 0.296875q0.03125 0.171875 0.03125 0.453125z" fill-rule="nonzero"></path><path fill="#0b5394" d="m94.14227 93.00554q0 0.09375 -0.046875 0.171875q-0.046875 0.0625 -0.15625 0.109375q-0.109375 0.046875 -0.296875 0.0625q-0.1875 0.03125 -0.46875 0.03125q-0.296875 0 -0.484375 -0.03125q-0.1875 -0.015625 -0.3125 -0.0625q-0.109375 -0.046875 -0.15625 -0.109375q-0.046875 -0.078125 -0.046875 -0.171875l0 -0.921875q-0.640625 0.6875 -1.34375 1.078125q-0.703125 0.375 -1.5625 0.375q-0.9375 0 -1.59375 -0.359375q-0.65625 -0.375 -1.078125 -1.0q-0.40625 -0.625 -0.59375 -1.453125q-0.171875 -0.828125 -0.171875 -1.75q0 -1.109375 0.234375 -1.984375q0.234375 -0.875 0.6875 -1.5q0.453125 -0.625 1.125 -0.953125q0.6875 -0.34375 1.5625 -0.34375q0.703125 0 1.265625 0.296875q0.5625 0.28125 1.125 0.828125l0 -4.484375q0 -0.09375 0.046875 -0.171875q0.046875 -0.078125 0.171875 -0.125q0.140625 -0.046875 0.359375 -0.078125q0.234375 -0.03125 0.578125 -0.03125q0.34375 0 0.5625 0.03125q0.21875 0.03125 0.34375 0.078125q0.140625 0.046875 0.1875 0.125q0.0625 0.078125 0.0625 0.171875l0 12.171875zm-2.3125 -5.53125q-0.5 -0.625 -0.96875 -0.953125q-0.453125 -0.34375 -0.953125 -0.34375q-0.453125 0 -0.78125 0.234375q-0.328125 0.21875 -0.53125 0.609375q-0.203125 0.375 -0.296875 0.84375q-0.09375 0.46875 -0.09375 0.953125q0 0.515625 0.078125 1.015625q0.078125 0.484375 0.265625 0.875q0.203125 0.375 0.515625 0.609375q0.3125 0.234375 0.796875 0.234375q0.234375 0 0.453125 -0.0625q0.234375 -0.078125 0.46875 -0.234375q0.25 -0.15625 0.5 -0.40625q0.25 -0.265625 0.546875 -0.625l0 -2.75zm12.183212 4.84375q0 0.28125 -0.03125 0.46875q-0.015625 0.1875 -0.0625 0.3125q-0.046875 0.109375 -0.125 0.171875q-0.078125 0.046875 -0.171875 0.046875l-6.890625 0q-0.21875 0 -0.375 -0.03125q-0.140625 -0.046875 -0.234375 -0.140625q-0.078125 -0.109375 -0.125 -0.3125q-0.046875 -0.21875 -0.046875 -0.53125q0 -0.3125 0.03125 -0.53125q0.03125 -0.21875 0.09375 -0.390625q0.078125 -0.171875 0.1875 -0.328125q0.125 -0.171875 0.3125 -0.359375l2.078125 -2.234375q0.625 -0.640625 1.0 -1.171875q0.390625 -0.53125 0.59375 -0.96875q0.21875 -0.453125 0.296875 -0.8125q0.078125 -0.375 0.078125 -0.71875q0 -0.296875 -0.109375 -0.5625q-0.09375 -0.28125 -0.28125 -0.484375q-0.1875 -0.203125 -0.484375 -0.3125q-0.28125 -0.125 -0.671875 -0.125q-0.546875 0 -0.96875 0.140625q-0.421875 0.140625 -0.75 0.3125q-0.3125 0.171875 -0.53125 0.3125q-0.203125 0.140625 -0.328125 0.140625q-0.078125 0 -0.140625 -0.046875q-0.0625 -0.0625 -0.109375 -0.1875q-0.03125 -0.140625 -0.046875 -0.359375q-0.015625 -0.21875 -0.015625 -0.53125q0 -0.21875 0 -0.359375q0.015625 -0.140625 0.046875 -0.25q0.03125 -0.109375 0.078125 -0.1875q0.046875 -0.078125 0.15625 -0.1875q0.125 -0.109375 0.421875 -0.28125q0.3125 -0.171875 0.765625 -0.328125q0.46875 -0.171875 1.015625 -0.28125q0.546875 -0.109375 1.140625 -0.109375q0.9375 0 1.625 0.234375q0.703125 0.234375 1.171875 0.65625q0.46875 0.421875 0.6875 1.015625q0.234375 0.578125 0.234375 1.234375q0 0.59375 -0.109375 1.15625q-0.109375 0.5625 -0.46875 1.21875q-0.359375 0.65625 -1.0 1.453125q-0.640625 0.78125 -1.6875 1.828125l-1.40625 1.453125l4.734375 0q0.09375 0 0.171875 0.0625q0.078125 0.046875 0.125 0.15625q0.0625 0.109375 0.09375 0.3125q0.03125 0.1875 0.03125 0.4375z" fill-rule="nonzero"></path><path fill="#ff9900" d="m177.36684 336.03473l0 0c0 -14.768188 11.97197 -26.740173 26.740158 -26.740173l0 0c7.091934 0 13.893387 2.8172607 18.908142 7.8320312c5.0147552 5.01474 7.832016 11.816193 7.832016 18.908142l0 0c0 14.768188 -11.971985 26.740143 -26.740158 26.740143l0 0c-14.768188 0 -26.740158 -11.971954 -26.740158 -26.740143z" fill-rule="nonzero"></path><path fill="#000000" d="m198.63336 334.0113q0 1.15625 -0.25 2.09375q-0.25 0.9375 -0.734375 1.59375q-0.46875 0.640625 -1.1875 1.0q-0.703125 0.34375 -1.625 0.34375q-0.375 0 -0.703125 -0.078125q-0.3125 -0.0625 -0.609375 -0.203125q-0.296875 -0.15625 -0.59375 -0.375q-0.296875 -0.234375 -0.609375 -0.546875l0 4.109375q0 0.09375 -0.0625 0.171875q-0.046875 0.078125 -0.1875 0.125q-0.140625 0.0625 -0.375 0.09375q-0.234375 0.03125 -0.59375 0.03125q-0.375 0 -0.609375 -0.03125q-0.234375 -0.03125 -0.375 -0.09375q-0.140625 -0.046875 -0.203125 -0.125q-0.046875 -0.078125 -0.046875 -0.171875l0 -12.171875q0 -0.09375 0.046875 -0.15625q0.046875 -0.078125 0.171875 -0.125q0.125 -0.0625 0.3125 -0.078125q0.203125 -0.03125 0.515625 -0.03125q0.28125 0 0.484375 0.03125q0.203125 0.015625 0.328125 0.078125q0.125 0.046875 0.171875 0.125q0.046875 0.0625 0.046875 0.15625l0 1.03125q0.375 -0.390625 0.734375 -0.6875q0.375 -0.296875 0.75 -0.5q0.390625 -0.203125 0.796875 -0.296875q0.40625 -0.09375 0.859375 -0.09375q0.953125 0 1.625 0.375q0.6875 0.375 1.109375 1.03125q0.421875 0.640625 0.609375 1.515625q0.203125 0.875 0.203125 1.859375zm-2.5625 0.171875q0 -0.5625 -0.078125 -1.0625q-0.078125 -0.515625 -0.28125 -0.90625q-0.203125 -0.40625 -0.53125 -0.640625q-0.328125 -0.25 -0.8125 -0.25q-0.25 0 -0.484375 0.078125q-0.234375 0.0625 -0.484375 0.234375q-0.25 0.171875 -0.515625 0.4375q-0.265625 0.25 -0.5625 0.640625l0 2.875q0.515625 0.65625 0.984375 1.015625q0.46875 0.359375 0.984375 0.359375q0.484375 0 0.8125 -0.25q0.34375 -0.25 0.546875 -0.640625q0.21875 -0.390625 0.3125 -0.890625q0.109375 -0.5 0.109375 -1.0zm13.341797 -0.140625q0 1.125 -0.296875 2.046875q-0.296875 0.90625 -0.890625 1.578125q-0.59375 0.65625 -1.5 1.015625q-0.890625 0.359375 -2.09375 0.359375q-1.15625 0 -2.015625 -0.3125q-0.859375 -0.328125 -1.4375 -0.9375q-0.5625 -0.625 -0.84375 -1.515625q-0.265625 -0.90625 -0.265625 -2.046875q0 -1.125 0.296875 -2.046875q0.296875 -0.921875 0.890625 -1.578125q0.59375 -0.65625 1.484375 -1.015625q0.90625 -0.359375 2.109375 -0.359375q1.171875 0 2.03125 0.3125q0.859375 0.3125 1.421875 0.9375q0.5625 0.609375 0.828125 1.515625q0.28125 0.890625 0.28125 2.046875zm-2.53125 0.109375q0 -0.65625 -0.109375 -1.1875q-0.09375 -0.546875 -0.34375 -0.9375q-0.25 -0.40625 -0.65625 -0.625q-0.40625 -0.234375 -1.015625 -0.234375q-0.546875 0 -0.953125 0.203125q-0.40625 0.203125 -0.671875 0.59375q-0.265625 0.375 -0.40625 0.921875q-0.125 0.53125 -0.125 1.234375q0 0.640625 0.109375 1.1875q0.109375 0.53125 0.34375 0.9375q0.234375 0.40625 0.640625 0.625q0.421875 0.21875 1.03125 0.21875q0.546875 0 0.953125 -0.203125q0.421875 -0.203125 0.671875 -0.578125q0.265625 -0.390625 0.390625 -0.921875q0.140625 -0.546875 0.140625 -1.234375zm12.486328 -4.375q0 0.046875 -0.015625 0.109375q0 0.0625 -0.015625 0.15625q-0.015625 0.078125 -0.046875 0.1875q-0.015625 0.109375 -0.046875 0.25l-2.625 7.875q-0.046875 0.171875 -0.125 0.28125q-0.078125 0.09375 -0.28125 0.15625q-0.1875 0.046875 -0.515625 0.0625q-0.328125 0.03125 -0.84375 0.03125q-0.53125 0 -0.859375 -0.03125q-0.3125 -0.015625 -0.5 -0.078125q-0.1875 -0.0625 -0.28125 -0.15625q-0.078125 -0.109375 -0.125 -0.265625l-2.609375 -7.875q-0.0625 -0.203125 -0.109375 -0.359375q-0.03125 -0.15625 -0.03125 -0.21875q0 -0.078125 0 -0.125q0 -0.109375 0.046875 -0.171875q0.0625 -0.078125 0.1875 -0.125q0.140625 -0.046875 0.375 -0.0625q0.25 -0.03125 0.609375 -0.03125q0.40625 0 0.640625 0.03125q0.25 0.015625 0.390625 0.0625q0.140625 0.046875 0.1875 0.140625q0.0625 0.078125 0.109375 0.1875l1.984375 6.390625l0.0625 0.25l0.046875 -0.25l1.953125 -6.390625q0.03125 -0.109375 0.09375 -0.1875q0.0625 -0.09375 0.203125 -0.140625q0.140625 -0.046875 0.359375 -0.0625q0.234375 -0.03125 0.609375 -0.03125q0.359375 0 0.578125 0.03125q0.234375 0.015625 0.359375 0.0625q0.140625 0.046875 0.1875 0.125q0.046875 0.0625 0.046875 0.171875z" fill-rule="nonzero"></path></g></svg>

